REM DIRINDEX 1\3,1\5,1\6,1\2\7,1\2\8,1\4\9,1\4\10
REM DIRNAME folder01,folder02,folder03,folder04,folder05,folder06,folder07,folder08,folder09,folder10
TITLE ""
FILE "CD2Track04.mp3" MP3
  TRACK 01 AUDIO
    TITLE "9:cjc060_0868"
    INDEX 01 00:00:00
  TRACK 02 AUDIO
    TITLE "10:cjc060_0869"
    INDEX 01 00:01:30
  TRACK 03 AUDIO
    TITLE "9:cjc060_0870"
    INDEX 01 00:04:36
  TRACK 04 AUDIO
    TITLE "10:cjc060_0871"
    INDEX 01 00:05:54
  TRACK 05 AUDIO
    TITLE "9:cjc060_0872"
    INDEX 01 00:09:02
  TRACK 06 AUDIO
    TITLE "10:cjc060_0873"
    INDEX 01 00:10:06
  TRACK 07 AUDIO
    TITLE "10:cjc060_0874"
    INDEX 01 00:12:30
  TRACK 08 AUDIO
    TITLE "9:cjc060_0875"
    INDEX 01 00:15:07
  TRACK 09 AUDIO
    TITLE "10:cjc060_0876"
    INDEX 01 00:16:34
  TRACK 10 AUDIO
    TITLE "9:cjc060_0877"
    INDEX 01 00:20:26
  TRACK 11 AUDIO
    TITLE "10:cjc060_0878"
    INDEX 01 00:21:43
  TRACK 12 AUDIO
    TITLE "9:cjc060_0879"
    INDEX 01 00:24:74
  TRACK 13 AUDIO
    TITLE "10:cjc060_0880"
    INDEX 01 00:26:30
  TRACK 14 AUDIO
    TITLE "9:cjc060_0881"
    INDEX 01 00:30:69
  TRACK 15 AUDIO
    TITLE "10:cjc060_0882"
    INDEX 01 00:32:09
  TRACK 16 AUDIO
    TITLE "9:cjc060_0883"
    INDEX 01 00:35:72
  TRACK 17 AUDIO
    TITLE "10:cjc060_0884"
    INDEX 01 00:37:12
  TRACK 18 AUDIO
    TITLE "9:cjc060_0885"
    INDEX 01 00:41:02
  TRACK 19 AUDIO
    TITLE "10:cjc060_0886"
    INDEX 01 00:42:19
  TRACK 20 AUDIO
    TITLE "9:cjc060_0887"
    INDEX 01 00:45:73
  TRACK 21 AUDIO
    TITLE "10:cjc060_0888"
    INDEX 01 00:47:15
  TRACK 22 AUDIO
    TITLE "9:cjc060_0889"
    INDEX 01 00:50:27
  TRACK 23 AUDIO
    TITLE "10:cjc060_0890"
    INDEX 01 00:51:38
  TRACK 24 AUDIO
    TITLE "9:cjc060_0891"
    INDEX 01 00:55:38
  TRACK 25 AUDIO
    TITLE "10:cjc060_0892"
    INDEX 01 00:56:63
  TRACK 26 AUDIO
    TITLE "9:cjc060_0893"
    INDEX 01 01:00:12
  TRACK 27 AUDIO
    TITLE "10:cjc060_0894"
    INDEX 01 01:01:46
  TRACK 28 AUDIO
    TITLE "9:cjc060_0895"
    INDEX 01 01:05:38
  TRACK 29 AUDIO
    TITLE "10:cjc060_0896"
    INDEX 01 01:06:65
  TRACK 30 AUDIO
    TITLE "10:cjc060_0897"
    INDEX 01 01:09:30
  TRACK 31 AUDIO
    TITLE "9:cjc060_0898"
    INDEX 01 01:12:62
  TRACK 32 AUDIO
    TITLE "10:cjc060_0899"
    INDEX 01 01:14:12
  TRACK 33 AUDIO
    TITLE "9:cjc060_0900"
    INDEX 01 01:18:07
  TRACK 34 AUDIO
    TITLE "10:cjc060_0901"
    INDEX 01 01:19:54
  TRACK 35 AUDIO
    TITLE "9:cjc060_0902"
    INDEX 01 01:23:05
  TRACK 36 AUDIO
    TITLE "10:cjc060_0903"
    INDEX 01 01:24:30
  TRACK 37 AUDIO
    TITLE "9:cjc060_0904"
    INDEX 01 01:28:22
  TRACK 38 AUDIO
    TITLE "10:cjc060_0905"
    INDEX 01 01:29:41
  TRACK 39 AUDIO
    TITLE "9:cjc060_0906"
    INDEX 01 01:32:64
  TRACK 40 AUDIO
    TITLE "10:cjc060_0907"
    INDEX 01 01:34:08
  TRACK 41 AUDIO
    TITLE "9:cjc060_0908"
    INDEX 01 01:37:40
  TRACK 42 AUDIO
    TITLE "10:cjc060_0909"
    INDEX 01 01:38:57
  TRACK 43 AUDIO
    TITLE "9:cjc060_0910"
    INDEX 01 01:41:30
  TRACK 44 AUDIO
    TITLE "10:cjc060_0911"
    INDEX 01 01:42:47
  TRACK 45 AUDIO
    TITLE "9:cjc060_0912"
    INDEX 01 01:46:00
  TRACK 46 AUDIO
    TITLE "10:cjc060_0913"
    INDEX 01 01:47:35
  TRACK 47 AUDIO
    TITLE "9:cjc060_0914"
    INDEX 01 01:51:62
  TRACK 48 AUDIO
    TITLE "10:cjc060_0915"
    INDEX 01 01:53:12
  TRACK 49 AUDIO
    TITLE "9:cjc060_0916"
    INDEX 01 01:56:65
  TRACK 50 AUDIO
    TITLE "10:cjc060_0917"
    INDEX 01 01:58:11
  TRACK 51 AUDIO
    TITLE "9:cjc060_0918"
    INDEX 01 02:01:43
  TRACK 52 AUDIO
    TITLE "10:cjc060_0919"
    INDEX 01 02:02:66
  TRACK 53 AUDIO
    TITLE "9:cjc060_0920"
    INDEX 01 02:06:24
  TRACK 54 AUDIO
    TITLE "10:cjc060_0921"
    INDEX 01 02:07:53
  TRACK 55 AUDIO
    TITLE "9:cjc060_0922"
    INDEX 01 02:10:57
  TRACK 56 AUDIO
    TITLE "10:cjc060_0923"
    INDEX 01 02:12:17
  TRACK 57 AUDIO
    TITLE "9:cjc060_0924"
    INDEX 01 02:15:25
  TRACK 58 AUDIO
    TITLE "10:cjc060_0925"
    INDEX 01 02:16:42
  TRACK 59 AUDIO
    TITLE "9:cjc060_0926"
    INDEX 01 02:19:13
  TRACK 60 AUDIO
    TITLE "10:cjc060_0927"
    INDEX 01 02:20:20
  TRACK 61 AUDIO
    TITLE "9:cjc060_0928"
    INDEX 01 02:24:44
  TRACK 62 AUDIO
    TITLE "10:cjc060_0929"
    INDEX 01 02:25:61
  TRACK 63 AUDIO
    TITLE "0:"
    INDEX 01 02:28:59
